<svg width="13" height="13" viewBox="0 0 13 13" fill="none" xmlns="http://www.w3.org/2000/svg">
<path d="M11.6708 4.30055C11.5184 4.14823 11.3118 4.06266 11.0964 4.06266C10.8809 4.06266 10.6743 4.14823 10.5219 4.30055L6.50005 8.32243L2.47818 4.30055C2.32494 4.15255 2.1197 4.07066 1.90666 4.07251C1.69363 4.07436 1.48984 4.15981 1.3392 4.31045C1.18855 4.4611 1.10311 4.66488 1.10125 4.87792C1.0994 5.09095 1.1813 5.29619 1.3293 5.44943L5.92562 10.0457C6.07798 10.1981 6.28461 10.2836 6.50005 10.2836C6.7155 10.2836 6.92212 10.1981 7.07449 10.0457L11.6708 5.44943C11.8231 5.29706 11.9087 5.09044 11.9087 4.87499C11.9087 4.65955 11.8231 4.45292 11.6708 4.30055Z" fill="#5B5B5B"/>
</svg>
